HIERARCHY
ROOT hip
{
  OFFSET 0.0 0.0 0.0
  CHANNELS 6 Xposition Yposition Zposition Zrotation Yrotation Xrotation
  JOINT torso
  {
    OFFSET 0.0 0.0 0.0
    CHANNELS 3 Zrotation Xrotation Yrotation
    JOINT neck
    {
      OFFSET -20.11218299999996 327.95800799999995 66.30578600000035
      CHANNELS 3 Zrotation Xrotation Yrotation
      JOINT head
      {
        OFFSET 18.28939800000012 288.83178699999996 217.81652800000006
        CHANNELS 3 Zrotation Xrotation Yrotation
        End Site
        {
          OFFSET 0.0 0.0 0.0
        }
      }
    }
    JOINT left_collar
    {
      OFFSET -20.11218299999996 327.95800799999995 66.30578600000035
      CHANNELS 3 Zrotation Xrotation Yrotation
      JOINT left_upper_arm
      {
        OFFSET -127.08163400000001 -16.17407199999991 15.44799799999987
        CHANNELS 3 Zrotation Xrotation Yrotation
        JOINT left_forearm
        {
          OFFSET -234.267792 45.78796399999999 109.31286600000021
          CHANNELS 3 Zrotation Xrotation Yrotation
          JOINT left_hand
          {
            OFFSET -259.114014 -33.25433399999997 16.18847699999992
            CHANNELS 3 Zrotation Xrotation Yrotation
            End Site
            {
              OFFSET 0.0 0.0 0.0
            }
          }
        }
      }
    }
    JOINT right_collar
    {
      OFFSET -20.11218299999996 327.95800799999995 66.30578600000035
      CHANNELS 3 Zrotation Xrotation Yrotation
      JOINT right_upper_arm
      {
        OFFSET 164.513184 1.5733030000000099 4.892333999999892
        CHANNELS 3 Zrotation Xrotation Yrotation
        JOINT right_forearm
        {
          OFFSET 260.742027 48.718444999999974 144.35229500000014
          CHANNELS 3 Zrotation Xrotation Yrotation
          JOINT right_hand
          {
            OFFSET 287.85150899999996 -44.57171600000015 13.96813899999961
            CHANNELS 3 Zrotation Xrotation Yrotation
            End Site
            {
              OFFSET 0.0 0.0 0.0
            }
          }
        }
      }
    }
  }
}
MOTION
Frames: 11
Frame Time: 0.01
-280.39884494688533 244.07301762810567 1436.440150337382 0.12394235898759902 -3.4453262394292747 -3.455815188380623 0.8354045753785042 1.2966297583828312 -0.08014912343382612 1.1281177097168718 -11.952739590090014 -0.1938264028400297 0.0 0.0 0.0 5.029810170070846 0.97574275010994 -2.081274602095282 67.32053911816932 31.63349409549841 -1.7932997363952967 -0.7570347438844982 0.7617975756653951 -6.621917105969216 0.0 0.0 0.0 -2.9426110241982455 0.08771642516620289 0.013048051704985152 -65.27997725279687 40.55234602716508 10.253408065043564 -4.781168484313226 -0.21640336921801062 -2.27527633124451 0.0 0.0 0.0
-280.4494022269263 244.15340073395674 1436.5405100564506 0.1325539800198268 -3.3599577993451857 -3.5680640663050873 0.800930748768876 1.2427056675266315 -0.07723658615896832 1.111513785542834 -11.978256605392623 -0.17930847066481603 0.0 0.0 0.0 5.052164538902312 0.964229787242023 -1.9967515647043896 67.25998572229685 31.622936899455137 -1.8339921830308088 -0.7092661730283313 0.7703623994133666 -6.6442960120427275 0.0 0.0 0.0 -2.9170346664024627 0.08853649903815843 0.11254487782256942 -65.20137501199311 40.52188689590686 10.2935730063341 -4.838217972559897 -0.2167674307954974 -2.2853418307966598 0.0 0.0 0.0
-280.5008470173816 244.23391388709675 1436.6449130174715 0.14212134201570567 -3.276069198801973 -3.6763420783868055 0.7659379332862315 1.1897276135258854 -0.0741279669611364 1.0958514957258823 -12.00314751344271 -0.1655692975275306 0.0 0.0 0.0 5.073741793757645 0.9533703435874693 -1.91679398147355 67.19876669447592 31.61208691916468 -1.8748489508136266 -0.6605453141754413 0.7791461028038701 -6.667344110396128 0.0 0.0 0.0 -2.892415533832576 0.0892787152574641 0.207983718214086 -65.12188645699707 40.49123088332742 10.334543207892294 -4.896259974029333 -0.21673079409588894 -2.2934818997274955 0.0 0.0 0.0
-280.55324909079087 244.31457197781393 1436.7562746688106 0.15308087139231447 -3.195184444024995 -3.777857989735988 0.730476861728577 1.1387835502909096 -0.07075954658708858 1.0816493128757743 -12.026887799080086 -0.1530487565438757 0.0 0.0 0.0 5.093854908306849 0.9435650846783931 -1.8442329274896803 67.1366339410612 31.60091222672015 -1.9160619356975084 -0.610464402785332 0.7882639539935767 -6.691575975748577 0.0 0.0 0.0 -2.869317531685652 0.08992113304920525 0.2964495388213717 -65.04123715370837 40.46049681414498 10.376877868244998 -4.955782837375565 -0.21597864440631787 -2.298200281251514 0.0 0.0 0.0
-280.6066570669526 244.39545292745888 1436.8775951130112 0.16586136062969528 -3.118740291155827 -3.86996452271229 0.6945897563808198 1.0909078629240712 -0.06707105594308038 1.0693908909643448 -12.048984510985324 -0.14215761353174017 0.0 0.0 0.0 5.111846290508793 0.9351989517910131 -1.781767646589506 67.07329805919953 31.589370985462985 -1.9578468341920934 -0.5585992359489191 0.7978392883729729 -6.7175436023444375 0.0 0.0 0.0 -2.8482639711129076 0.09044637245934165 0.3751742610300517 -64.95912324288417 40.42978211748947 10.42113614988378 -5.017324526733014 -0.21418726069028765 -2.2979801284303827 0.0 0.0 0.0
-280.6610868692753 244.4766950133735 1437.0118671305231 0.18086374938193198 -3.04804117325834 -3.9502471739020466 0.6583149637873364 1.0470484619672014 -0.0630087019995892 1.0595086668970244 -12.06899399554355 -0.13326349075188032 0.0 0.0 0.0 5.12710908250471 0.9286269306482434 -1.7318730130223605 67.0084396814208 31.57741325393828 -2.0004353918497433 -0.5045268072825128 0.8079997654261593 -6.745821837332046 0.0 0.0 0.0 -2.829718983270227 0.0908413184644867 0.44163149930804085 -64.87522745163935 40.39916124315124 10.467854787969616 -5.081455116547073 -0.21103227148990486 -2.2913252376915985 0.0 0.0 0.0
-280.7165115399897 244.5584923178441 1437.161987423231 0.19844095188388658 -2.984221822307837 -4.0166010848547895 0.6216931455026498 1.0080392657384172 -0.05852807374500269 1.0523701347869765 -12.086537410574376 -0.12667905588649148 0.0 0.0 0.0 5.139105647817735 0.92416108335348 -1.6967182103711629 66.94172128942637 31.564983312165722 -2.0440681685865756 -0.44784278832789887 0.8188735553884804 -6.7769932420163315 0.0 0.0 0.0 -2.814071676442141 0.0910964550255236 0.49361866787774733 -64.78923525906815 40.36868541920296 10.51752781768332 -5.1487570935624225 -0.20619687725044894 -2.276800966421113 0.0 0.0 0.0
-280.7728529952499 244.6410885616213 1437.3306744181748 0.21887873495399385 -2.9282187769115327 -4.067293228962911 0.5847746266542883 0.9745790225056608 -0.05359680067629765 1.0482671404958332 -12.101313348766 -0.12265275926874991 0.0 0.0 0.0 5.147382644742329 0.9220594297193033 -1.6780994478192555 66.87279895184277 31.552022432540173 -2.088988228326041 -0.38817815493637614 0.830585591866784 -6.811632885784241 0.0 0.0 0.0 -2.801623570730587 0.0912049871126859 0.5293235317694314 -64.70085054674044 40.3383837538322 10.570589249995518 -5.21980429467242 -0.19937974001917452 -2.2530732923620698 0.0 0.0 0.0
-280.82997619034296 244.7247697246898 1437.520395476083 0.24237858093304662 -2.8807512124125343 -4.101008373546248 0.5476273720972005 0.9472168659506174 -0.04819684612879596 1.047408305220858 -12.113107119283656 -0.12136224110359016 0.0 0.0 0.0 5.151582356285943 0.9225171124968395 -1.677388378658309 66.80133349319539 31.538472001059542 -2.1354360750969703 -0.3252143230619544 0.8432540117595058 -6.850293559153202 0.0 0.0 0.0 -2.792579592821361 0.09116192360800901 0.547373555871242 -64.6098101147269 40.30826558490624 10.627399283213007 -5.29514052740184 -0.19030224477575458 -2.2189444186934013 0.0 0.0 0.0
-280.8876860277982 244.80985595205402 1437.7333057755293 0.26904335580152156 -2.842310925374294 -4.116878297001492 0.5103449813547388 0.9263445484408572 -0.042326329650754356 1.0499145171841087 -12.1217964556598 -0.12291038244373659 0.0 0.0 0.0 5.151450160130389 0.9256601271281014 -1.6954969128234834 66.72700069222785 31.52427688251475 -2.183646041525692 -0.258696242814054 0.856986885867492 -6.893491854268111 0.0 0.0 0.0 -2.7870426989060304 0.09096328148999042 0.5468674951048409 -64.51589651758293 40.278323899773476 10.688234400322367 -5.375259000455702 -0.17871487355990792 -2.173383452389705 0.0 0.0 0.0
-280.94572718703404 244.89669327557215 1437.9712004965572 0.29886644793227685 -2.8131608578260594 -4.114494563992265 0.4730540751680775 0.9121949624334731 -0.03600078896813489 1.0558173239982902 -12.12735362462851 -0.1273238754994064 0.0 0.0 0.0 5.146838187244546 0.9315417484297871 -1.7328583360935357 66.64950021444501 31.509388914342065 -2.233844208935314 -0.1884429988115295 0.8718793239672253 -6.941695505070372 0.0 0.0 0.0 -2.785012025787293 0.09060553743167765 0.5273895440346968 -64.4189487669316 40.24853958923393 10.753281485130977 -5.460583620692412 -0.16440250224564326 -2.1155509887795794 0.0 0.0 0.0
